<svg width="417" height="24" viewBox="0 0 417 24" fill="none" xmlns="http://www.w3.org/2000/svg">
<path d="M1.89008 6.78844C2.85183 6.78844 3.81359 6.78844 21.861 6.78844C39.9084 6.78844 75.0123 6.78844 94.5388 6.30757C131.053 5.40835 161.133 2.91232 173.796 2.17642C176.73 2.00593 179.61 1.45512 205.621 1.2074C231.632 0.959682 280.681 0.959682 306.911 1.20012C333.14 1.44055 335.064 1.92142 350.481 2.16914C394.746 2.88037 421.592 3.37861 414.816 4.83582C406.298 6.66783 393.949 4.36951 365.709 2.91231C344.704 1.82844 310.058 2.41686 290.539 2.89774C258.812 3.67936 240.463 7.25478 221.512 8.72655C207.13 9.84348 196.718 13.579 180.703 14.7958C176.729 15.0977 173.898 16.9597 171.45 18.1838C202.124 21.3604 274.896 21.8413 259.231 22.5699C245.971 22.8177 221.927 22.8177 197.155 22.8177" stroke="#EEC3F3" stroke-width="2" stroke-linecap="round"/>
</svg>
